# xmcd CD database file
#
# Track frame offsets:
#	150
#	12937
#	23587
#	32362
#	46312
#	55950
#	69825
#	83700
#	89175
#	105262
#	123075
#	135150
#	144525
#	163237
#
# Disc length: 2404 seconds
#
# Revision: 2
# Processed by: cddbd v1.4b41PL1 Copyright (c) Steve Scherf et al.
# Submitted via: Feurio! 1.60 - http://www.feurio.com
#
DISCID=a609620e,b909620e
DTITLE=Bashful Brother Oswald - Don't Say Aloha
DYEAR=1900
DGENRE=
TTITLE0=I'm So Lonesome I Could Cry
TTITLE1=Isle Of Golden Dreams
TTITLE2=The Girl I Love Don't Pay Me No Mind
TTITLE3=You Are The Star In My Blue Heaven
TTITLE4=Don't Say Aloha When I Go
TTITLE5=Bible In The Barn
TTITLE6=Amazing Grace
TTITLE7=Cripple Creek
TTITLE8=Mansion On The Hill
TTITLE9=Rose Of San Antone
TTITLE10=French Song
TTITLE11=That High Born Gal Of Mine
TTITLE12=Should I Tell My Wife I'm Dying?
TTITLE13=The Old Rugged Cross
EXTD=
EXTT0=
EXTT1=
EXTT2=
EXTT3=
EXTT4=
EXTT5=
EXTT6=
EXTT7=
EXTT8=
EXTT9=
EXTT10=
EXTT11=
EXTT12=
EXTT13=
PLAYORDER=
